<svg xmlns="http://www.w3.org/2000/svg" width="1400" height="1120" viewBox="0 0 1400 1120"><defs><radialGradient id="bg" cx="85%" cy="5%" r="95%"><stop offset="0" stop-color="#17385f"/><stop offset=".42" stop-color="#0b172a"/><stop offset="1" stop-color="#060b13"/></radialGradient><filter id="shadow"><feDropShadow dx="0" dy="22" stdDeviation="22" flood-color="#000" flood-opacity=".5"/></filter></defs><style>
  text{font-family:Inter,Segoe UI,Arial,sans-serif}.drawing-grid{fill:url(#vehicle-grid)}#vehicle-grid path{fill:none;stroke:#31506455;stroke-width:.45}#vehicle-dim-arrow path{fill:#ffb45f}
  .drawing-member{stroke-width:2.1;stroke-linecap:round}.drawing-member.construction{stroke-dasharray:4 3;stroke-width:1}.drawing-member.skeleton{stroke:#60a5fa}.drawing-member.chassis{stroke:#23d5c3}.drawing-member.suspension{stroke:#4cc9ff}.drawing-member.steering{stroke:#ef7bd3}.drawing-member.powertrain{stroke:#28d7d0}.drawing-member.brakes{stroke:#f8a44b}
  .drawing-wheel{fill:#07131d;stroke:#55cfff;stroke-width:2}.drawing-rim{fill:#0d2635;stroke:#9bdcf2;stroke-width:1}.drawing-wheel-plane{fill:#0b1c28;fill-opacity:.86;stroke:#55cfff;stroke-width:1.7}
  .drawing-point{fill:#a8bac5;stroke:#07131e;stroke-width:1}.drawing-point.state{fill:#ffaf59}.drawing-point.steering{fill:#db8cff}.drawing-point.suspension{fill:#50d1ff}.drawing-point.cg{fill:#f8d15b}.drawing-point.contact{fill:#5ce0a4}
  .drawing-dimension{stroke:#ffb45f;stroke-width:.9}.drawing-extension{stroke:#7b6043;stroke-width:.65;stroke-dasharray:2 2}.drawing-dimension-label{fill:#ffd19b;font:9px Consolas,monospace;text-anchor:middle}.drawing-axis-label{fill:#a4b8c5;font:8.5px Consolas,monospace}.drawing-state-label{fill:#8fe7c5;font:8.5px Consolas,monospace}
</style><rect width="1400" height="1120" fill="url(#bg)"/><text x="52" y="46" fill="#5eead4" font-size="13" font-weight="800" letter-spacing="2.4">PS3D VEHICLE · VERIFIED SOLVED GRAPH</text><text x="52" y="82" fill="#f8fafc" font-size="30" font-weight="780">Delta cargo three-wheeler kinematic package</text><text x="52" y="108" fill="#9fb0ca" font-size="15">delta-1f2r · design-ride · top projection</text><rect x="1242" y="45" width="108" height="36" rx="18" fill="#0d786f33" stroke="#42dbc5"/><text x="1296" y="68" text-anchor="middle" fill="#70f1d7" font-size="12" font-weight="800" letter-spacing="1.5">REVIEW</text><rect x="50" y="128" width="1300" height="780" rx="18" fill="#07121eee" stroke="#385572" filter="url(#shadow)"/><g transform="translate(100 142) scale(4)"><defs><marker id="vehicle-dim-arrow" markerWidth="6" markerHeight="6" refX="3" refY="3" orient="auto-start-reverse"><path d="M0 0L6 3L0 6Z"></path></marker><pattern id="vehicle-grid" width="12" height="12" patternUnits="userSpaceOnUse"><path d="M12 0H0V12"></path></pattern></defs><rect class="drawing-grid" x="0" y="0" width="300" height="188"></rect><line class="drawing-member suspension solid" x1="99.18250950570341" y1="42.86882129277565" x2="45.79847908745247" y2="22.336501901140675"></line><line class="drawing-member suspension solid" x1="66.03555810186117" y1="40.30228136882129" x2="80.70342205323193" y2="40.30228136882129"></line><line class="drawing-member suspension solid" x1="99.18250950570341" y1="130.13117870722434" x2="45.79847908745247" y2="150.6634980988593"></line><line class="drawing-member suspension solid" x1="66.03555810186117" y1="132.6977186311787" x2="80.70342205323193" y2="132.6977186311787"></line><line class="drawing-member suspension solid" x1="45.79847908745247" y1="22.336501901140675" x2="45.79847908745247" y2="150.6634980988593"></line><line class="drawing-member suspension solid" x1="241.76156143780116" y1="79.95019011406843" x2="256.25475285171103" y2="79.95019011406843"></line><line class="drawing-member suspension solid" x1="241.76156143780116" y1="93.04980988593155" x2="256.25475285171103" y2="93.04980988593155"></line><line class="drawing-member steering solid" x1="237.82254794363115" y1="86.5" x2="227.76681261765134" y2="86.5"></line><line class="drawing-member steering construction" x1="264.3331228939417" y1="86.5" x2="227.76681261765134" y2="86.5"></line><line class="drawing-member steering solid" x1="241.76156143780116" y1="79.95019011406843" x2="241.76156143780116" y2="93.04980988593155"></line><line class="drawing-member steering solid" x1="231.70582611182132" y1="79.95019011406843" x2="231.70582611182132" y2="93.04980988593155"></line><line class="drawing-member steering solid" x1="227.76681261765134" y1="49.54182509505703" x2="227.76681261765134" y2="123.45817490494298"></line><line class="drawing-member chassis solid" x1="58.11787072243345" y1="51.85171102661596" x2="209.95437262357413" y2="51.85171102661596"></line><line class="drawing-member chassis solid" x1="58.11787072243345" y1="121.14828897338404" x2="209.95437262357413" y2="121.14828897338404"></line><line class="drawing-member chassis solid" x1="58.11787072243345" y1="51.85171102661596" x2="58.11787072243345" y2="121.14828897338404"></line><line class="drawing-member chassis solid" x1="209.95437262357413" y1="51.85171102661596" x2="209.95437262357413" y2="121.14828897338404"></line><line class="drawing-member chassis solid" x1="136.29467680608363" y1="86.5" x2="136.29467680608363" y2="86.5"></line><rect class="drawing-wheel-plane" x="15" y="14.893536121672994" width="61.59695817490494" height="14.885931558935361" rx="2" transform="rotate(0 45.79847908745247 22.336501901140675)"></rect><rect class="drawing-wheel-plane" x="15" y="143.22053231939162" width="61.59695817490494" height="14.885931558935361" rx="2" transform="rotate(0 45.79847908745247 150.6634980988593)"></rect><rect class="drawing-wheel-plane" x="227.50950570342206" y="80.85361216730038" width="57.49049429657796" height="11.29277566539924" rx="2" transform="rotate(0 256.25475285171103 86.5)"></rect><circle class="drawing-point axle state" cx="45.79847908745247" cy="86.5" r="2.3"></circle><rect class="drawing-point suspension" x="96.7825095057034" y="84.1" width="4.8" height="4.8"></rect><circle class="drawing-point axle state" cx="45.79847908745247" cy="22.336501901140675" r="2.3"></circle><circle class="drawing-point contact state" cx="45.79847908745247" cy="22.336501901140675" r="2.3"></circle><rect class="drawing-point suspension" x="96.7825095057034" y="40.46882129277565" width="4.8" height="4.8"></rect><circle class="drawing-point suspension state" cx="66.03555810186117" cy="40.30228136882129" r="2.3"></circle><rect class="drawing-point suspension" x="78.30342205323193" y="37.90228136882129" width="4.8" height="4.8"></rect><circle class="drawing-point axle state" cx="45.79847908745247" cy="150.6634980988593" r="2.3"></circle><circle class="drawing-point contact state" cx="45.79847908745247" cy="150.6634980988593" r="2.3"></circle><rect class="drawing-point suspension" x="96.7825095057034" y="127.73117870722433" width="4.8" height="4.8"></rect><circle class="drawing-point suspension state" cx="66.03555810186117" cy="132.6977186311787" r="2.3"></circle><rect class="drawing-point suspension" x="78.30342205323193" y="130.2977186311787" width="4.8" height="4.8"></rect><circle class="drawing-point axle state" cx="256.25475285171103" cy="86.5" r="2.3"></circle><circle class="drawing-point contact state" cx="256.25475285171103" cy="86.5" r="2.3"></circle><circle class="drawing-point steering " cx="264.3331228939417" cy="86.5" r="2.3"></circle><circle class="drawing-point steering " cx="237.82254794363115" cy="86.5" r="2.3"></circle><circle class="drawing-point steering " cx="227.76681261765134" cy="86.5" r="2.3"></circle><circle class="drawing-point suspension " cx="241.76156143780116" cy="79.95019011406843" r="2.3"></circle><circle class="drawing-point suspension " cx="231.70582611182132" cy="79.95019011406843" r="2.3"></circle><circle class="drawing-point axle state" cx="256.25475285171103" cy="79.95019011406843" r="2.3"></circle><circle class="drawing-point suspension " cx="241.76156143780116" cy="93.04980988593155" r="2.3"></circle><circle class="drawing-point suspension " cx="231.70582611182132" cy="93.04980988593155" r="2.3"></circle><circle class="drawing-point axle state" cx="256.25475285171103" cy="93.04980988593155" r="2.3"></circle><rect class="drawing-point steering" x="225.36681261765133" y="47.14182509505703" width="4.8" height="4.8"></rect><rect class="drawing-point steering" x="225.36681261765133" y="121.05817490494297" width="4.8" height="4.8"></rect><rect class="drawing-point frame" x="133.89467680608362" y="84.1" width="4.8" height="4.8"></rect><rect class="drawing-point cg" x="137.8471482889734" y="84.1" width="4.8" height="4.8"></rect><rect class="drawing-point powertrain" x="131.79011406844106" y="84.1" width="4.8" height="4.8"></rect><rect class="drawing-point frame" x="55.71787072243345" y="49.45171102661596" width="4.8" height="4.8"></rect><rect class="drawing-point frame" x="207.55437262357412" y="49.45171102661596" width="4.8" height="4.8"></rect><rect class="drawing-point frame" x="55.71787072243345" y="118.74828897338404" width="4.8" height="4.8"></rect><rect class="drawing-point frame" x="207.55437262357412" y="118.74828897338404" width="4.8" height="4.8"></rect><rect class="drawing-point frame" x="133.89467680608362" y="84.1" width="4.8" height="4.8"></rect><line class="drawing-dimension" x1="286" y1="22.336501901140675" x2="286" y2="150.6634980988593" marker-start="url(#vehicle-dim-arrow)" marker-end="url(#vehicle-dim-arrow)"></line><line class="drawing-extension" x1="45.79847908745246" y1="22.336501901140675" x2="290" y2="22.336501901140675"></line><line class="drawing-extension" x1="45.79847908745246" y1="150.6634980988593" x2="290" y2="150.6634980988593"></line><text class="drawing-dimension-label" x="150" y="185">TRACK SOLVED 1,250 mm</text><text class="drawing-axis-label" x="8" y="14">X / Y</text><text class="drawing-state-label" x="292" y="14" text-anchor="end">REVIEW</text></g><g transform="translate(50 940)"><rect width="310" height="118" rx="14" fill="#101b2c" stroke="#2b425d"/><text x="20" y="30" fill="#91a7c2" font-size="12" font-weight="700" letter-spacing="1">HARDPOINTS / MEMBERS</text><text x="20" y="62" fill="#f8fafc" font-size="19" font-weight="750">33 / 17</text><text x="20" y="91" fill="#5eead4" font-size="12">authoritative graph</text></g><g transform="translate(380 940)"><rect width="310" height="118" rx="14" fill="#101b2c" stroke="#2b425d"/><text x="20" y="30" fill="#91a7c2" font-size="12" font-weight="700" letter-spacing="1">INVARIANT GATE</text><text x="20" y="62" fill="#f8fafc" font-size="19" font-weight="750">7 pass</text><text x="20" y="91" fill="#5eead4" font-size="12">0 unresolved</text></g><g transform="translate(710 940)"><rect width="310" height="118" rx="14" fill="#101b2c" stroke="#2b425d"/><text x="20" y="30" fill="#91a7c2" font-size="12" font-weight="700" letter-spacing="1">MASS / ACHIEVED BRAKE</text><text x="20" y="62" fill="#f8fafc" font-size="19" font-weight="750">755.0 kg / 3.37 m/s²</text><text x="20" y="91" fill="#5eead4" font-size="12">concept screen</text></g><g transform="translate(1040 940)"><rect width="310" height="118" rx="14" fill="#101b2c" stroke="#2b425d"/><text x="20" y="30" fill="#91a7c2" font-size="12" font-weight="700" letter-spacing="1">EVIDENCE STATUS</text><text x="20" y="62" fill="#f8fafc" font-size="19" font-weight="750">illustrative-unvalidated</text><text x="20" y="91" fill="#5eead4" font-size="12">DO NOT FABRICATE</text></g><text x="700" y="1093" text-anchor="middle" fill="#758aa5" font-size="12">Rendered from solveVehicleGeometry() · no OEM geometry · no roadworthiness or fabrication approval · vehicle gate 6/6</text></svg>