<svg xmlns="http://www.w3.org/2000/svg" width="1400" height="760" viewBox="0 0 1400 760"><defs><radialGradient id="gateBg" cx="90%" cy="4%" r="100%"><stop offset="0" stop-color="#174367"/><stop offset=".5" stop-color="#0a1728"/><stop offset="1" stop-color="#050a12"/></radialGradient></defs><rect width="1400" height="760" fill="url(#gateBg)"/><text x="72" y="58" fill="#5eead4" font-family="Inter,Segoe UI,Arial" font-size="13" font-weight="800" letter-spacing="2.4">DETERMINISTIC BROWSER-RUNTIME EVIDENCE</text><text x="72" y="101" fill="#f8fafc" font-family="Inter,Segoe UI,Arial" font-size="32" font-weight="780">PS3D vehicle v2 verification</text><text x="72" y="136" fill="#9fb0ca" font-family="Inter,Segoe UI,Arial" font-size="16">Authoritative geometry, physics screens, invalid-state rejection, and MCP boundary</text><rect x="1120" y="62" width="208" height="58" rx="29" fill="#0d786f33" stroke="#42dbc5"/><text x="1224" y="98" text-anchor="middle" fill="#70f1d7" font-family="Inter,Segoe UI,Arial" font-size="17" font-weight="800">6/6 vehicle tests passed</text><g font-family="Inter,Segoe UI,Arial"><g transform="translate(72 190)"><rect width="1256" height="58" rx="12" fill="#0f1c2d" stroke="#29435d"/><circle cx="29" cy="29" r="14" fill="#0b806f"/><path d="M22 29l5 5 10-12" fill="none" stroke="#d7fff7" stroke-width="3.5" stroke-linecap="round" stroke-linejoin="round"/><text x="58" y="36" fill="#eef6ff" font-size="18" font-weight="650">five original vehicle topology packages validate with a closed geometry gate</text><text x="1198" y="35" fill="#5eead4" font-size="12" font-weight="800" letter-spacing="1">PASS</text></g><g transform="translate(72 268)"><rect width="1256" height="58" rx="12" fill="#0f1c2d" stroke="#29435d"/><circle cx="29" cy="29" r="14" fill="#0b806f"/><path d="M22 29l5 5 10-12" fill="none" stroke="#d7fff7" stroke-width="3.5" stroke-linecap="round" stroke-linejoin="round"/><text x="58" y="36" fill="#eef6ff" font-size="18" font-weight="650">vehicle loads, brakes, stopping, spring rates, and powertrain point match independent equations</text><text x="1198" y="35" fill="#5eead4" font-size="12" font-weight="800" letter-spacing="1">PASS</text></g><g transform="translate(72 346)"><rect width="1256" height="58" rx="12" fill="#0f1c2d" stroke="#29435d"/><circle cx="29" cy="29" r="14" fill="#0b806f"/><path d="M22 29l5 5 10-12" fill="none" stroke="#d7fff7" stroke-width="3.5" stroke-linecap="round" stroke-linejoin="round"/><text x="58" y="36" fill="#eef6ff" font-size="18" font-weight="650">suspension state solvers preserve fork, swingarm, wishbone, upright, and unit-swing constraints</text><text x="1198" y="35" fill="#5eead4" font-size="12" font-weight="800" letter-spacing="1">PASS</text></g><g transform="translate(72 424)"><rect width="1256" height="58" rx="12" fill="#0f1c2d" stroke="#29435d"/><circle cx="29" cy="29" r="14" fill="#0b806f"/><path d="M22 29l5 5 10-12" fill="none" stroke="#d7fff7" stroke-width="3.5" stroke-linecap="round" stroke-linejoin="round"/><text x="58" y="36" fill="#eef6ff" font-size="18" font-weight="650">three-wheel steering and support-polygon screens are topology specific</text><text x="1198" y="35" fill="#5eead4" font-size="12" font-weight="800" letter-spacing="1">PASS</text></g><g transform="translate(72 502)"><rect width="1256" height="58" rx="12" fill="#0f1c2d" stroke="#29435d"/><circle cx="29" cy="29" r="14" fill="#0b806f"/><path d="M22 29l5 5 10-12" fill="none" stroke="#d7fff7" stroke-width="3.5" stroke-linecap="round" stroke-linejoin="round"/><text x="58" y="36" fill="#eef6ff" font-size="18" font-weight="650">impossible suspension states are rejected instead of clamped into plausible geometry</text><text x="1198" y="35" fill="#5eead4" font-size="12" font-weight="800" letter-spacing="1">PASS</text></g><g transform="translate(72 580)"><rect width="1256" height="58" rx="12" fill="#0f1c2d" stroke="#29435d"/><circle cx="29" cy="29" r="14" fill="#0b806f"/><path d="M22 29l5 5 10-12" fill="none" stroke="#d7fff7" stroke-width="3.5" stroke-linecap="round" stroke-linejoin="round"/><text x="58" y="36" fill="#eef6ff" font-size="18" font-weight="650">vehicle MCP analysis is read-only, model-neutral, and truth labeled</text><text x="1198" y="35" fill="#5eead4" font-size="12" font-weight="800" letter-spacing="1">PASS</text></g></g><text x="700" y="724" text-anchor="middle" fill="#7186a1" font-family="Inter,Segoe UI,Arial" font-size="12">Local browser execution · PS3D vehicle schema 2 · not a roadworthiness or fabrication approval</text></svg>